<?xml version="1.0" encoding="utf-8"?>
<!DOCTYPE svg PUBLIC "-//W3C//DTD SVG 1.1//EN" "http://www.w3.org/Graphics/SVG/1.1/DTD/svg11.dtd">
<svg version="1.1" xmlns="http://www.w3.org/2000/svg" xmlns:xlink="http://www.w3.org/1999/xlink" x="0px" y="0px"
	 width="860px" height="400px" viewBox="0 0 860 400" enable-background="new 0 0 860 400" xml:space="preserve">
<g>
	<g>
		<line fill="none" stroke="#1e64c8" stroke-width="12" stroke-miterlimit="10" x1="3.67" y1="200" x2="832.17" y2="200"/>
		<g>
			<polygon fill="#1e64c8" points="826.91,217.85 858,199.9 826.91,181.95 			"/>
		</g>
	</g>
</g>
<g>
	<g>
		<rect x="646.88" y="146.29" fill="#FFFFFF" width="169.27" height="106.17"/>
		<path fill="#1D1D1B" d="M815.64,146.79v105.17H647.38V146.79H815.64 M816.64,145.79h-1H647.38h-1v1v105.17v1h1h168.27h1v-1V146.79
			V145.79L816.64,145.79z"/>
	</g>
	<rect x="679.2" y="157.02" fill="#1e64c8" width="136.44" height="9.09"/>
	<rect x="647.38" y="157.02" fill="#1e64c8" width="16.2" height="9.09"/>
	<g>
		<rect x="666.61" y="165.28" fill="#1A4175" width="10.35" height="0.43"/>
		<rect x="666.61" y="160.22" fill="#1A4175" width="10.35" height="0.39"/>
		<rect x="664.69" y="166.78" fill="#1A4175" width="14.22" height="0.7"/>
		<rect x="669.01" y="168.51" fill="#1A4175" width="5.59" height="0.66"/>
		<polygon fill="#1A4175" points="671.8,158.03 667.15,159.85 676.43,159.85 		"/>
		<rect x="667.82" y="161.09" fill="#1A4175" width="0.64" height="3.81"/>
		<rect x="669.28" y="161.09" fill="#1A4175" width="0.64" height="3.81"/>
		<rect x="670.74" y="161.09" fill="#1A4175" width="0.64" height="3.81"/>
		<rect x="672.2" y="161.09" fill="#1A4175" width="0.64" height="3.81"/>
		<rect x="673.66" y="161.09" fill="#1A4175" width="0.64" height="3.81"/>
		<rect x="675.12" y="161.09" fill="#1A4175" width="0.64" height="3.81"/>
	</g>
</g>
<g>
	<g>
		<rect x="299" y="36.73" fill="#FFFFFF" width="169.27" height="106.17"/>
		<path fill="#1D1D1B" d="M467.77,37.23v105.17H299.5V37.23H467.77 M468.77,36.23h-1H299.5h-1v1v105.17v1h1h168.27h1v-1V37.23V36.23
			L468.77,36.23z"/>
	</g>
	<rect x="331.33" y="47.46" fill="#1e64c8" width="136.44" height="9.09"/>
	<rect x="299.5" y="47.46" fill="#1e64c8" width="16.2" height="9.09"/>
	<g>
		<rect x="318.73" y="55.72" fill="#1A4175" width="10.35" height="0.43"/>
		<rect x="318.73" y="50.66" fill="#1A4175" width="10.35" height="0.39"/>
		<rect x="316.82" y="57.22" fill="#1A4175" width="14.22" height="0.7"/>
		<rect x="321.13" y="58.95" fill="#1A4175" width="5.59" height="0.66"/>
		<polygon fill="#1A4175" points="323.93,48.47 319.27,50.29 328.56,50.29 		"/>
		<rect x="319.94" y="51.53" fill="#1A4175" width="0.64" height="3.81"/>
		<rect x="321.4" y="51.53" fill="#1A4175" width="0.64" height="3.81"/>
		<rect x="322.87" y="51.53" fill="#1A4175" width="0.64" height="3.81"/>
		<rect x="324.33" y="51.53" fill="#1A4175" width="0.64" height="3.81"/>
		<rect x="325.79" y="51.53" fill="#1A4175" width="0.64" height="3.81"/>
		<rect x="327.25" y="51.53" fill="#1A4175" width="0.64" height="3.81"/>
	</g>
</g>
<g id="g10" transform="matrix(1.3333 0 0 -1.3333 0 150.67)">
</g>
<g id="g12" transform="scale(.1)">
</g>
<g>
	<g>
		<rect x="139.25" y="250.68" fill="#FFFFFF" width="169.27" height="106.17"/>
		<path fill="#1D1D1B" d="M308.01,251.18v105.17H139.75V251.18H308.01 M309.01,250.18h-1H139.75h-1v1v105.17v1h1h168.27h1v-1V251.18
			V250.18L309.01,250.18z"/>
	</g>
	<rect x="171.57" y="261.41" fill="#1e64c8" width="136.44" height="9.09"/>
	<rect x="139.75" y="261.41" fill="#1e64c8" width="16.2" height="9.09"/>
	<g>
		<rect x="158.98" y="269.67" fill="#1A4175" width="10.35" height="0.43"/>
		<rect x="158.98" y="264.61" fill="#1A4175" width="10.35" height="0.39"/>
		<rect x="157.06" y="271.17" fill="#1A4175" width="14.22" height="0.7"/>
		<rect x="161.38" y="272.9" fill="#1A4175" width="5.59" height="0.66"/>
		<polygon fill="#1A4175" points="164.17,262.42 159.52,264.24 168.8,264.24 		"/>
		<rect x="160.19" y="265.48" fill="#1A4175" width="0.64" height="3.81"/>
		<rect x="161.65" y="265.48" fill="#1A4175" width="0.64" height="3.81"/>
		<rect x="163.11" y="265.48" fill="#1A4175" width="0.64" height="3.81"/>
		<rect x="164.57" y="265.48" fill="#1A4175" width="0.64" height="3.81"/>
		<rect x="166.03" y="265.48" fill="#1A4175" width="0.64" height="3.81"/>
		<rect x="167.49" y="265.48" fill="#1A4175" width="0.64" height="3.81"/>
	</g>
</g>
<rect x="148.39" y="281.1" fill="#C6C6C5" width="150.98" height="9.9"/>
<rect x="148.39" y="299.14" fill="#C6C6C5" width="23.72" height="7.01"/>
<rect x="178.13" y="299.14" fill="#C6C6C5" width="49.42" height="7.01"/>
<rect x="190.92" y="312.33" fill="#C6C6C5" width="39.79" height="7.01"/>
<rect x="148.7" y="312.33" fill="#C6C6C5" width="32.82" height="7.01"/>
<rect x="697.28" y="205.26" fill="#C6C6C5" width="39.79" height="7.01"/>
<rect x="655.06" y="205.26" fill="#C6C6C5" width="32.83" height="7.01"/>
<rect x="148.39" y="324.67" fill="#C6C6C5" width="23.72" height="7.01"/>
<rect x="178.13" y="324.67" fill="#C6C6C5" width="49.42" height="7.01"/>
<rect x="190.92" y="337.86" fill="#C6C6C5" width="39.79" height="7.01"/>
<rect x="148.7" y="337.86" fill="#C6C6C5" width="32.82" height="7.01"/>
<rect x="308.15" y="85.04" fill="#C6C6C5" width="23.72" height="7.01"/>
<rect x="337.89" y="85.04" fill="#C6C6C5" width="49.41" height="7.01"/>
<rect x="308.46" y="98.23" fill="#575756" width="16.41" height="7.01"/>
<rect x="333.08" y="98.23" fill="#575756" width="16.41" height="7.01"/>
<rect x="358.41" y="98.23" fill="#575756" width="22.59" height="7.01"/>
<rect x="308.46" y="67.8" fill="#575756" width="18.56" height="7.92"/>
<rect x="336.29" y="67.8" fill="#575756" width="22.12" height="7.92"/>
<rect x="364.93" y="67.8" fill="#575756" width="96.75" height="7.92"/>
<rect x="308.15" y="110.57" fill="#C6C6C5" width="23.72" height="7.01"/>
<rect x="337.89" y="110.57" fill="#C6C6C5" width="49.41" height="7.01"/>
<rect x="350.68" y="123.76" fill="#C6C6C5" width="39.79" height="7.01"/>
<rect x="308.46" y="123.76" fill="#C6C6C5" width="32.83" height="7.01"/>
<g>
	<rect x="397.63" y="88.73" width="62.13" height="33.94"/>
	<path fill="#BD1622" d="M438.42,107.59c0,2.58-1.89,4.66-4.21,4.66h-11.01c-2.33,0-4.21-2.09-4.21-4.66v-4.24
		c0-2.58,1.89-4.66,4.21-4.66h11.01c2.33,0,4.21,2.09,4.21,4.66V107.59z"/>
	<polygon fill="#FFFFFF" points="426.78,102.72 431.02,105.17 426.78,107.62 	"/>
</g>
<rect x="654.75" y="192.61" fill="#C6C6C5" width="23.72" height="7.01"/>
<rect x="684.48" y="192.61" fill="#C6C6C5" width="49.41" height="7.01"/>
<rect x="655.06" y="175.37" fill="#C6C6C5" width="18.56" height="7.92"/>
<rect x="682.89" y="175.37" fill="#C6C6C5" width="22.12" height="7.92"/>
<rect x="711.53" y="175.37" fill="#C6C6C5" width="96.75" height="7.92"/>
<rect x="654.75" y="218.14" fill="#C6C6C5" width="23.72" height="7.01"/>
<rect x="684.48" y="218.14" fill="#C6C6C5" width="49.41" height="7.01"/>
<rect x="697.28" y="231.33" fill="#C6C6C5" width="39.79" height="7.01"/>
<rect x="655.06" y="231.33" fill="#C6C6C5" width="32.83" height="7.01"/>
<g>
	<rect x="744.23" y="196.3" width="62.13" height="33.94"/>
	<path fill="#BD1622" d="M785.01,215.16c0,2.58-1.89,4.66-4.21,4.66h-11.01c-2.33,0-4.21-2.09-4.21-4.66v-4.24
		c0-2.58,1.89-4.66,4.21-4.66h11.01c2.33,0,4.21,2.09,4.21,4.66V215.16z"/>
	<polygon fill="#FFFFFF" points="773.38,210.29 777.62,212.74 773.38,215.19 	"/>
</g>
<g>
	<g>
		<rect x="414.46" y="248.62" fill="#FFFFFF" width="169.27" height="106.16"/>
		<path fill="#1D1D1B" d="M583.23,249.12v105.16H414.96V249.12H583.23 M584.23,248.12h-1H414.96h-1v1v105.16v1h1h168.27h1v-1V249.12
			V248.12L584.23,248.12z"/>
	</g>
	<rect x="446.79" y="259.35" fill="#1e64c8" width="136.44" height="9.09"/>
	<rect x="414.96" y="259.35" fill="#1e64c8" width="16.2" height="9.09"/>
	<g>
		<rect x="434.2" y="267.61" fill="#1A4175" width="10.35" height="0.44"/>
		<rect x="434.2" y="262.55" fill="#1A4175" width="10.35" height="0.39"/>
		<rect x="432.28" y="269.11" fill="#1A4175" width="14.22" height="0.7"/>
		<rect x="436.59" y="270.85" fill="#1A4175" width="5.59" height="0.66"/>
		<polygon fill="#1A4175" points="439.39,260.36 434.73,262.19 444.02,262.19 		"/>
		<rect x="435.4" y="263.42" fill="#1A4175" width="0.64" height="3.81"/>
		<rect x="436.87" y="263.42" fill="#1A4175" width="0.64" height="3.81"/>
		<rect x="438.33" y="263.42" fill="#1A4175" width="0.64" height="3.81"/>
		<rect x="439.79" y="263.42" fill="#1A4175" width="0.64" height="3.81"/>
		<rect x="441.25" y="263.42" fill="#1A4175" width="0.64" height="3.81"/>
		<rect x="442.71" y="263.42" fill="#1A4175" width="0.64" height="3.81"/>
	</g>
</g>
<rect x="423.61" y="296.93" fill="#ECECEC" width="23.72" height="7.01"/>
<rect x="453.35" y="296.93" fill="#ECECEC" width="49.41" height="7.01"/>
<rect x="423.92" y="310.12" fill="#E5007E" width="16.41" height="7.01"/>
<rect x="448.54" y="310.12" fill="#E5007E" width="16.41" height="7.01"/>
<rect x="473.87" y="310.12" fill="#E5007E" width="22.59" height="7.01"/>
<rect x="423.92" y="279.69" fill="#E5007E" width="18.56" height="7.92"/>
<rect x="451.75" y="279.69" fill="#E5007E" width="22.12" height="7.92"/>
<rect x="480.39" y="279.69" fill="#E5007E" width="96.75" height="7.92"/>
<rect x="423.61" y="322.46" fill="#ECECEC" width="23.72" height="7.01"/>
<rect x="453.35" y="322.46" fill="#ECECEC" width="49.41" height="7.01"/>
<rect x="466.14" y="335.65" fill="#ECECEC" width="39.79" height="7.01"/>
<rect x="423.92" y="335.65" fill="#ECECEC" width="32.83" height="7.01"/>
<g>
	<rect x="513.09" y="300.62" stroke="#E5007E" stroke-width="4" stroke-miterlimit="10" width="62.13" height="33.94"/>
	<path fill="#BD1622" d="M553.88,319.48c0,2.58-1.89,4.66-4.21,4.66h-11.01c-2.33,0-4.21-2.09-4.21-4.66v-4.24
		c0-2.58,1.89-4.66,4.21-4.66h11.01c2.33,0,4.21,2.09,4.21,4.66V319.48z"/>
	<polygon fill="#FFFFFF" points="542.24,314.62 546.48,317.07 542.24,319.52 	"/>
</g>
<path fill="#E20613" stroke="#FFFFFF" stroke-width="3" stroke-miterlimit="10" d="M436.42,359.27l-0.87,1.21
	c-6.01,9.09-10.94,13.63-14.79,13.63c-4.43,0-8.78-3.6-13.06-10.8c0.58,0.04,1,0.06,1.27,0.06c5.04,0,10.67-3.85,16.87-11.55
	l1.56-1.96l-2.02-2.2c-5.66-6.01-8.49-11.11-8.49-15.31c0-3.43,3.1-7.47,9.3-12.13c0.89,5.97,3.52,11.78,7.92,17.45l1.73,2.19
	l1.39-1.79c6.43-8.2,12.27-12.3,17.5-12.3c4.08,0,7.18,3.1,9.3,9.3c-0.62-0.08-1.06-0.12-1.33-0.12c-1.85,0-4.45,1.24-7.8,3.73
	c-3.35,2.48-6.18,5.29-8.49,8.4l-1.73,2.37l1.68,1.62c6.2,6.01,12.67,9.01,19.41,9.01c-3.62,7.32-7.39,10.98-11.32,10.98
	c-3.54,0-8.67-3.12-15.37-9.36L436.42,359.27z"/>
<path fill="#009540" stroke="#FFFFFF" stroke-width="3" stroke-miterlimit="10" d="M421.05,314.21l2.01,5.13
	c-7.88,5.93-16.73,12.7-26.38,25.04c-9.65,12.34-8.52,14.41-13.61,25.13l-4.09,2.76c-3.39,2.36-5.69,4.11-6.91,5.25
	c-0.48-1.73-1.53-4.57-3.15-8.51l-1.55-3.59c-2.21-5.16-4.26-8.97-6.16-11.44s-4.03-4.11-6.38-4.92c3.98-4.2,7.62-6.3,10.94-6.3
	c2.84,0,5.99,3.85,9.45,11.55l1.71,3.87c6.23-10.5,5.72-11.24,15.49-21.15C402.19,327.12,411.73,319.51,421.05,314.21z"/>
<text transform="matrix(1 0 0 1 162.2876 389.667)" font-family="'Arial-BoldMT'" font-size="24">publicatie</text>
<text transform="matrix(1 0 0 1 336.291 22.3335)" font-family="'Arial-BoldMT'" font-size="24">suggestie</text>
<text transform="matrix(1 0 0 1 14.5576 145.3936)" font-family="'Arial-ItalicMT'" font-size="24">student</text>
<text transform="matrix(1 0 0 1 173.0371 33.9248)" fill="#6F6F6E" font-family="'ArialMT'" font-size="18">opmerking</text>
<text transform="matrix(1 0 0 1 165.0034 56.1992)" fill="#6F6F6E" font-family="'ArialMT'" font-size="18">aanpassing</text>
<text transform="matrix(1 0 0 1 169.0029 77.8013)" fill="#6F6F6E" font-family="'ArialMT'" font-size="18">toevoeging</text>
<text transform="matrix(1 0 0 1 14.5576 391.666)" font-family="'Arial-ItalicMT'" font-size="24">lesgever</text>
<text transform="matrix(1 0 0 1 433.1973 389.666)" font-family="'Arial-BoldMT'" font-size="24">acceptatie?</text>
<text transform="matrix(1 0 0 1 687.8828 282.0488)" font-family="'Arial-BoldMT'" font-size="24">update!</text>
<g>
	<g>
		<path fill="none" stroke="#1A4175" stroke-width="4" stroke-miterlimit="10" d="M179.07,236.84
			c20.97-37.32,73.58-84.39,97.96-99.23"/>
		<g>
			<polygon fill="#1A4175" points="263.82,161.75 260.72,159.22 277.29,138.92 251.55,143.82 250.8,139.89 287.33,132.94 			"/>
		</g>
	</g>
</g>
<g>
	<g>
		<path fill="none" stroke="#1A4175" stroke-width="4" stroke-miterlimit="10" d="M478.26,77.41
			c28.2,29.99,58.32,115.81,66.25,149.8"/>
		<g>
			<polygon fill="#1A4175" points="526.18,207.17 529.54,204.99 543.84,226.95 547,200.94 550.96,201.42 546.48,238.34 			"/>
		</g>
	</g>
</g>
<g>
	<g>
		<path fill="none" stroke="#1A4175" stroke-width="4" stroke-miterlimit="10" d="M593,328.18c16.86-5.35,41.35-15.77,73.25-58.63"
			/>
		<g>
			<polygon fill="#1A4175" points="661.74,295.86 657.92,294.66 665.74,269.66 643.68,283.79 641.52,280.42 672.84,260.36 			"/>
		</g>
	</g>
</g>
<circle fill="#E59F7E" fill-opacity="0.36" stroke="#231F20" stroke-width="2" stroke-miterlimit="10" cx="56" cy="304.73" r="51.33"/>
<circle fill="#E59F7E" fill-opacity="0.36" stroke="#231F20" stroke-width="2" stroke-miterlimit="10" cx="56" cy="61.23" r="51.33"/>
<path fill="#B17F49" stroke="#231F20" stroke-width="2" stroke-miterlimit="10" d="M12.54,88.54c-4.98-7.91-7.87-17.27-7.87-27.3
	C4.67,32.88,27.65,9.9,56,9.9c28.35,0,51.33,22.98,51.33,51.33c0,9.15-2.41,17.73-6.6,25.17c0-0.05-0.1-36.39-7.76-42.05
	c0,0-16.27,28-36.97,26.33c0,0,9.3-14,5.3-22.33c0,0-15.33,24.33-28.33,24c0,0,4-15.67,0-20L12.54,88.54z"/>
<path fill="#7E4E24" stroke="#231F20" stroke-width="2" stroke-linejoin="round" stroke-miterlimit="10" d="M107.33,304.73
	c0-1.02-0.04-2.03-0.1-3.03v-0.11l-0.01,0.02c-1.61-26.9-23.93-48.21-51.23-48.21S6.38,274.71,4.77,301.61l-0.01-0.02v0.11
	c-0.06,1-0.1,2.01-0.1,3.03c0,0.91,0.03,1.81,0.07,2.7l-0.07,20.67c0,0,2.1,14.51,15.05,12.75l-3.02-7.93
	c-2.69-23.46,13.05-26.24,32.97-31.03c11.84-2.85,19.15-9.15,23.34-14.24c5.62,6.1,15.57,15.7,23.64,17.07
	c0.31,0.57,0.63,1.17,0.95,1.78c1.88,3.57,1.53,11.26,1.25,14.62c-0.82,9.9-6.57,19.71-6.57,19.71c-0.69,0.8-1.2,1.33-1.4,1.53
	c0.53-0.49,1.05-1,1.56-1.52c12.82,1.61,14.9-12.77,14.9-12.77l-0.07-20.58C107.31,306.59,107.33,305.66,107.33,304.73z"/>
<line fill="none" stroke="#6F6F6E" stroke-width="2" stroke-linecap="round" stroke-miterlimit="10" x1="293.5" y1="52.2" x2="265" y2="28.33"/>
<line fill="none" stroke="#6F6F6E" stroke-width="2" stroke-linecap="round" stroke-miterlimit="10" x1="292.33" y1="52.2" x2="265" y2="51.33"/>
<line fill="none" stroke="#6F6F6E" stroke-width="2" stroke-linecap="round" stroke-miterlimit="10" x1="293.5" y1="52.2" x2="265" y2="74.24"/>
<line fill="none" stroke="#BD1622" stroke-width="5" stroke-miterlimit="10" x1="655.17" y1="118.71" x2="667.57" y2="135.81"/>
<line fill="none" stroke="#BD1622" stroke-width="5" stroke-miterlimit="10" x1="689.12" y1="110.47" x2="693.95" y2="129.36"/>
<line fill="none" stroke="#BD1622" stroke-width="5" stroke-miterlimit="10" x1="728.15" y1="108.41" x2="726.15" y2="126.75"/>
<line fill="none" stroke="#BD1622" stroke-width="5" stroke-miterlimit="10" x1="762.22" y1="110.8" x2="757.58" y2="129.03"/>
<line fill="none" stroke="#BD1622" stroke-width="5" stroke-miterlimit="10" x1="800.57" y1="118.33" x2="790.29" y2="133.02"/>
<line fill="none" stroke="#BD1622" stroke-width="5" stroke-miterlimit="10" x1="638.86" y1="141.93" x2="623.31" y2="133.73"/>
<line fill="none" stroke="#BD1622" stroke-width="5" stroke-miterlimit="10" x1="632.92" y1="164.84" x2="617" y2="160.9"/>
<line fill="none" stroke="#BD1622" stroke-width="5" stroke-miterlimit="10" x1="633.15" y1="185.35" x2="616.77" y2="184.6"/>
<line fill="none" stroke="#BD1622" stroke-width="5" stroke-miterlimit="10" x1="632.92" y1="218.14" x2="617" y2="225.15"/>
<line fill="none" stroke="#BD1622" stroke-width="5" stroke-miterlimit="10" x1="640" y1="241.5" x2="624.96" y2="251.18"/>
<line fill="none" stroke="#BD1622" stroke-width="5" stroke-miterlimit="10" x1="798" y1="265" x2="803.14" y2="277.5"/>
<line fill="none" stroke="#BD1622" stroke-width="5" stroke-miterlimit="10" x1="821.5" y1="260.31" x2="831" y2="271.92"/>
<line fill="none" stroke="#BD1622" stroke-width="5" stroke-miterlimit="10" x1="825.25" y1="234.83" x2="838.5" y2="241.5"/>
<line fill="none" stroke="#BD1622" stroke-width="5" stroke-miterlimit="10" x1="824.5" y1="140.54" x2="835.5" y2="131.09"/>
<line fill="none" stroke="#BD1622" stroke-width="5" stroke-miterlimit="10" x1="826.93" y1="164.98" x2="840.82" y2="160.82"/>
</svg>
