<?xml version="1.0" encoding="utf-8"?>
<!-- Generator: Adobe Illustrator 15.0.0, SVG Export Plug-In . SVG Version: 6.00 Build 0)  -->
<!DOCTYPE svg PUBLIC "-//W3C//DTD SVG 1.1//EN" "http://www.w3.org/Graphics/SVG/1.1/DTD/svg11.dtd">
<svg version="1.1" id="Layer_1" xmlns="http://www.w3.org/2000/svg" xmlns:xlink="http://www.w3.org/1999/xlink" x="0px" y="0px"
	 width="860px" height="400px" viewBox="0 0 860 400" enable-background="new 0 0 860 400" xml:space="preserve">
<style>
text { fill: white; }
</style>
<g>
	<g>
		<rect x="283.67" y="94.68" fill="#FFFFFF" width="312.43" height="196.02"/>
		<path fill="black" d="M595.1,95.68V289.7H284.67V95.68H595.1 M597.1,93.68h-2H284.67h-2v2V289.7v2h2H595.1h2v-2V95.68V93.68
			L597.1,93.68z"/>
	</g>
	<rect x="343.38" y="114.55" fill="#FBBA00" width="251.72" height="16.77"/>
	<rect x="284.67" y="114.55" fill="#1A4175" width="29.88" height="16.77"/>
	<g>
		<rect x="320.15" y="129.79" fill="#1A4175" width="19.1" height="0.81"/>
		<rect x="320.15" y="120.47" fill="#1A4175" width="19.1" height="0.73"/>
		<rect x="316.61" y="132.56" fill="#1A4175" width="26.24" height="1.3"/>
		<rect x="324.57" y="135.76" fill="#1A4175" width="10.32" height="1.22"/>
		<polygon fill="#1A4175" points="329.73,116.42 321.14,119.78 338.27,119.78 		"/>
		<rect x="322.38" y="122.07" fill="#1A4175" width="1.18" height="7.03"/>
		<rect x="325.07" y="122.07" fill="#1A4175" width="1.18" height="7.03"/>
		<rect x="327.77" y="122.07" fill="#1A4175" width="1.18" height="7.03"/>
		<rect x="330.46" y="122.07" fill="#1A4175" width="1.18" height="7.03"/>
		<rect x="333.16" y="122.07" fill="#1A4175" width="1.18" height="7.03"/>
		<rect x="335.85" y="122.07" fill="#1A4175" width="1.18" height="7.03"/>
	</g>
</g>
<text transform="matrix(1 0 0 1 287.668 313.3359)" fill="#1D70B7" font-family="'ArialMT'" font-size="19.1466">www.ugent.be/slides/innoversity#24</text>
<rect x="35.29" y="30.77" fill="#FFFFFF" stroke="black" stroke-width="2" stroke-miterlimit="10" width="96.61" height="128.44"/>
<rect x="627" y="115.54" fill="#FFFFFF" stroke="black" stroke-width="2" stroke-miterlimit="10" width="227" height="87.26"/>
<rect x="309.61" y="215.76" fill="#1D70B7" width="48.91" height="14.47"/>
<g>
	<g>
		<rect x="87.62" y="279.35" fill="#FFFFFF" width="145.51" height="91.32"/>
		<path fill="black" d="M232.62,279.85v90.32H88.12v-90.32H232.62 M233.62,278.85h-1H88.12h-1v1v90.32v1h1h144.51h1v-1v-90.32
			V278.85L233.62,278.85z"/>
	</g>
	<rect x="115.45" y="288.64" fill="#FBBA00" width="117.18" height="7.81"/>
	<rect x="88.12" y="288.64" fill="#1A4175" width="13.91" height="7.81"/>
	<g>
		<rect x="104.63" y="295.73" fill="#1A4175" width="8.89" height="0.38"/>
		<rect x="104.63" y="291.39" fill="#1A4175" width="8.89" height="0.34"/>
		<rect x="102.99" y="297.02" fill="#1A4175" width="12.22" height="0.61"/>
		<rect x="106.69" y="298.51" fill="#1A4175" width="4.8" height="0.57"/>
		<polygon fill="#1A4175" points="109.09,289.5 105.1,291.07 113.07,291.07 		"/>
		<rect x="105.67" y="292.13" fill="#1A4175" width="0.55" height="3.27"/>
		<rect x="106.93" y="292.13" fill="#1A4175" width="0.55" height="3.27"/>
		<rect x="108.18" y="292.13" fill="#1A4175" width="0.55" height="3.27"/>
		<rect x="109.44" y="292.13" fill="#1A4175" width="0.55" height="3.27"/>
		<rect x="110.69" y="292.13" fill="#1A4175" width="0.55" height="3.27"/>
		<rect x="111.94" y="292.13" fill="#1A4175" width="0.55" height="3.27"/>
	</g>
</g>
<g>
	<g>
		<path fill="none" stroke="black" stroke-width="2" stroke-miterlimit="10" d="M528.16,330.87
			c41.91,54.99,220.18,2.8,238.53-139.67"/>
		<g>
			<polygon fill="black" points="521.25,338.03 521.63,318.09 538.71,328.38 			"/>
		</g>
	</g>
</g>
<g id="g10" transform="matrix(1.3333 0 0 -1.3333 0 150.67)">
</g>
<rect x="721" y="133.86" fill="#D9D9D9" width="123" height="8"/>
<rect x="92.59" y="311.32" fill="#D9D9D9" width="124.05" height="9.4"/>
<rect x="92.59" y="336.6" fill="#D9D9D9" width="124.05" height="9.4"/>
<rect x="309.61" y="151.05" fill="#D9D9D9" width="263.75" height="13.95"/>
<rect x="366.62" y="216.03" fill="#D9D9D9" width="40.8" height="13.95"/>
<rect x="309.61" y="186.52" fill="#D9D9D9" width="97.81" height="13.95"/>
<rect x="309.61" y="250.2" fill="#D9D9D9" width="97.81" height="13.95"/>
<rect x="721" y="155.92" fill="#D9D9D9" width="123" height="8"/>
<rect x="808" y="177.97" fill="#D9D9D9" width="36" height="8"/>
<rect x="721" y="177.97" fill="#1D70B7" width="16.75" height="8"/>
<rect x="740.5" y="177.97" fill="#1D70B7" width="25.83" height="8"/>
<rect x="768.75" y="177.97" fill="#1D70B7" width="30.58" height="8"/>
<rect x="721" y="188.93" fill="#1D70B7" stroke="#1D70B7" stroke-miterlimit="10" width="78.33" height="2.11"/>
<rect x="309.61" y="233.76" fill="#1D70B7" stroke="#1D70B7" stroke-miterlimit="10" width="48.91" height="2.11"/>
<g id="g12" transform="scale(.1)">
</g>
<path id="path22" fill="#55ACEE" d="M705.57,139.85c-2.29,1.02-4.75,1.7-7.34,2.01c2.64-1.58,4.66-4.09,5.62-7.07
	c-2.47,1.46-5.2,2.53-8.12,3.1c-2.33-2.48-5.65-4.04-9.33-4.04c-7.06,0-12.78,5.72-12.78,12.78c0,1,0.11,1.98,0.33,2.91
	c-10.62-0.53-20.04-5.62-26.34-13.35c-1.1,1.89-1.73,4.08-1.73,6.42c0,4.43,2.25,8.35,5.69,10.64c-2.1-0.07-4.07-0.64-5.79-1.6
	c0,0.05,0,0.11,0,0.16c0,6.19,4.41,11.36,10.25,12.53c-1.07,0.29-2.2,0.45-3.37,0.45c-0.82,0-1.62-0.08-2.41-0.23
	c1.63,5.08,6.35,8.77,11.94,8.88c-4.38,3.43-9.89,5.47-15.87,5.47c-1.03,0-2.05-0.06-3.05-0.18c5.66,3.63,12.38,5.74,19.59,5.74
	c23.51,0,36.36-19.47,36.36-36.36c0-0.55-0.01-1.1-0.04-1.65C701.69,144.67,703.85,142.42,705.57,139.85"/>
<g>
	<rect x="422.65" y="181.82" width="150.71" height="82.33"/>
	<path fill="#BD1622" d="M521.58,227.57c0,6.25-4.58,11.31-10.22,11.31h-26.71c-5.64,0-10.22-5.06-10.22-11.31v-10.28
		c0-6.25,4.58-11.31,10.22-11.31h26.71c5.64,0,10.22,5.06,10.22,11.31V227.57z"/>
	<polygon fill="#FFFFFF" points="493.35,215.76 503.64,221.71 493.35,227.65 	"/>
</g>
<text transform="matrix(1 0 0 1 339.252 80.7988)" font-family="'Arial-BoldItalicMT'" font-size="40" letter-spacing="1">webslides</text>
<text transform="matrix(1 0 0 1 627 232.4238)" font-family="'Arial-ItalicMT'" font-size="24">tweets</text>
<text transform="matrix(1 0 0 1 43.9019 264.1523)" font-family="'Arial-ItalicMT'" font-size="24">andere cursussen</text>
<text transform="matrix(1 0 0 1 35.2886 186.8223)" font-family="'Arial-ItalicMT'" font-size="24">papers</text>
<g>
	<g>
		<rect x="1.7" y="306.74" fill="#FFFFFF" width="145.51" height="91.32"/>
		<path fill="black" d="M146.71,307.24v90.32H2.2v-90.32H146.71 M147.71,306.24h-1H2.2h-1v1v90.32v1h1h144.51h1v-1v-90.32V306.24
			L147.71,306.24z"/>
	</g>
	<rect x="29.53" y="316.02" fill="#FBBA00" width="117.18" height="7.81"/>
	<rect x="2.2" y="316.02" fill="#1A4175" width="13.91" height="7.81"/>
	<g>
		<rect x="18.72" y="323.12" fill="#1A4175" width="8.89" height="0.38"/>
		<rect x="18.72" y="318.78" fill="#1A4175" width="8.89" height="0.34"/>
		<rect x="17.07" y="324.41" fill="#1A4175" width="12.22" height="0.61"/>
		<rect x="20.77" y="325.9" fill="#1A4175" width="4.8" height="0.57"/>
		<polygon fill="#1A4175" points="23.18,316.89 19.18,318.46 27.15,318.46 		"/>
		<rect x="19.75" y="319.52" fill="#1A4175" width="0.55" height="3.27"/>
		<rect x="21.01" y="319.52" fill="#1A4175" width="0.55" height="3.27"/>
		<rect x="22.26" y="319.52" fill="#1A4175" width="0.55" height="3.27"/>
		<rect x="23.52" y="319.52" fill="#1A4175" width="0.55" height="3.27"/>
		<rect x="24.77" y="319.52" fill="#1A4175" width="0.55" height="3.27"/>
		<rect x="26.03" y="319.52" fill="#1A4175" width="0.55" height="3.27"/>
	</g>
</g>
<rect x="12.95" y="336.6" fill="#D9D9D9" width="124.05" height="9.4"/>
<rect x="44.9" y="52.33" fill="#868686" width="77.1" height="9.4"/>
<rect x="44.9" y="68.05" fill="#D9D9D9" width="77.1" height="4.11"/>
<rect x="44.9" y="74.72" fill="#D9D9D9" width="77.1" height="4.11"/>
<rect x="44.9" y="81.72" fill="#D9D9D9" width="77.1" height="4.11"/>
<rect x="44.9" y="88.39" fill="#D9D9D9" width="77.1" height="4.11"/>
<rect x="44.9" y="94.99" fill="#D9D9D9" width="77.1" height="4.11"/>
<rect x="44.9" y="101.65" fill="#D9D9D9" width="77.1" height="4.11"/>
<rect x="44.9" y="108.65" fill="#D9D9D9" width="77.1" height="4.11"/>
<rect x="44.9" y="115.32" fill="#D9D9D9" width="77.1" height="4.11"/>
<rect x="44.9" y="121.82" fill="#D9D9D9" width="77.1" height="4.11"/>
<rect x="44.9" y="128.49" fill="#D9D9D9" width="77.1" height="4.11"/>
<rect x="44.9" y="135.49" fill="#D9D9D9" width="77.1" height="4.11"/>
<rect x="44.9" y="142.15" fill="#D9D9D9" width="77.1" height="4.11"/>
<rect x="12.95" y="363.63" fill="#D9D9D9" width="20.8" height="8"/>
<rect x="92.59" y="363.63" fill="#D9D9D9" width="22.21" height="8"/>
<rect x="12.95" y="381.13" fill="#D9D9D9" width="101.84" height="8"/>
<rect x="37.12" y="363.63" fill="#1D70B7" width="22.88" height="8"/>
<rect x="63.37" y="363.63" fill="#1D70B7" width="25.83" height="8"/>
<rect x="37.12" y="374.34" fill="#1D70B7" stroke="#1D70B7" stroke-miterlimit="10" width="52.08" height="1.56"/>
<g>
	<g>
		<path fill="none" stroke="black" stroke-width="2" stroke-miterlimit="10" d="M88.12,375.12
			c155.52,12.32,257.8-9.84,280.23-41.62"/>
		<g>
			<polygon fill="black" points="375.92,339.63 372.95,319.91 357.36,332.34 			"/>
		</g>
	</g>
</g>
<text transform="matrix(1 0 0 1 574.001 128.3286)" font-family="'ArialMT'" font-size="14">24</text>
<polygon opacity="0.5" fill="#FFFFFF" points="339.72,219.28 344.34,244.72 352.54,237.58 369.08,257.3 374.02,253 357.13,233.59
	364.89,226.83 "/>
<g>
	<polygon fill="#FFFFFF" stroke="#1D1D1B" stroke-width="2" stroke-miterlimit="10" points="343.75,223.53 347.69,245.22
		354.69,239.13 368.79,255.94 373,252.28 358.6,235.73 365.21,229.97 	"/>
	<line fill="none" stroke="#BD1622" stroke-width="2" stroke-miterlimit="10" x1="353.5" y1="219.28" x2="356.87" y2="209.5"/>
	<line fill="none" stroke="#BD1622" stroke-width="2" stroke-miterlimit="10" x1="334.34" y1="219.28" x2="324.57" y2="216.03"/>
	<line fill="none" stroke="#BD1622" stroke-width="2" stroke-miterlimit="10" x1="333.16" y1="227.65" x2="326.25" y2="227.65"/>
	<line fill="none" stroke="#BD1622" stroke-width="2" stroke-miterlimit="10" x1="337.03" y1="238.88" x2="331.05" y2="242"/>
	<line fill="none" stroke="#BD1622" stroke-width="2" stroke-miterlimit="10" x1="342.85" y1="214.39" x2="342.85" y2="205.98"/>
</g>
<g>
	<polygon fill="#FFFFFF" stroke="#1D1D1B" stroke-width="2" stroke-miterlimit="10" points="793.3,183.5 797.24,205.19
		804.23,199.1 818.33,215.91 822.54,212.25 808.14,195.7 814.76,189.94 	"/>
	<line fill="none" stroke="#BD1622" stroke-width="2" stroke-miterlimit="10" x1="803.04" y1="179.25" x2="806.42" y2="169.47"/>
	<line fill="none" stroke="#BD1622" stroke-width="2" stroke-miterlimit="10" x1="783.88" y1="179.25" x2="774.12" y2="175.99"/>
	<line fill="none" stroke="#BD1622" stroke-width="2" stroke-miterlimit="10" x1="782.7" y1="187.61" x2="775.8" y2="187.61"/>
	<line fill="none" stroke="#BD1622" stroke-width="2" stroke-miterlimit="10" x1="786.58" y1="198.85" x2="780.6" y2="201.97"/>
	<line fill="none" stroke="#BD1622" stroke-width="2" stroke-miterlimit="10" x1="792.4" y1="174.36" x2="792.4" y2="165.95"/>
</g>
<g>
	<polygon fill="#FFFFFF" stroke="#1D1D1B" stroke-width="2" stroke-miterlimit="10" points="78.4,366.91 82.34,388.6 89.33,382.51
		103.43,399.33 107.64,395.66 93.24,379.11 99.86,373.35 	"/>
	<line fill="none" stroke="#BD1622" stroke-width="2" stroke-miterlimit="10" x1="88.15" y1="362.66" x2="91.52" y2="352.88"/>
	<line fill="none" stroke="#BD1622" stroke-width="2" stroke-miterlimit="10" x1="68.98" y1="362.66" x2="59.22" y2="359.41"/>
	<line fill="none" stroke="#BD1622" stroke-width="2" stroke-miterlimit="10" x1="67.8" y1="371.03" x2="60.9" y2="371.03"/>
	<line fill="none" stroke="#BD1622" stroke-width="2" stroke-miterlimit="10" x1="71.68" y1="382.26" x2="65.7" y2="385.38"/>
	<line fill="none" stroke="#BD1622" stroke-width="2" stroke-miterlimit="10" x1="77.5" y1="357.77" x2="77.5" y2="349.36"/>
</g>
<g>
	<rect x="77.21" y="44.03" fill="#575756" width="12.43" height="0.53"/>
	<rect x="77.21" y="37.96" fill="#575756" width="12.43" height="0.47"/>
	<rect x="74.91" y="45.83" fill="#575756" width="17.08" height="0.85"/>
	<rect x="80.09" y="47.91" fill="#575756" width="6.71" height="0.79"/>
	<polygon fill="#575756" points="83.45,35.33 77.86,37.52 89.01,37.52 	"/>
	<rect x="78.67" y="39" fill="#575756" width="0.77" height="4.58"/>
	<rect x="80.42" y="39" fill="#575756" width="0.77" height="4.58"/>
	<rect x="82.17" y="39" fill="#575756" width="0.77" height="4.58"/>
	<rect x="83.93" y="39" fill="#575756" width="0.77" height="4.58"/>
	<rect x="85.68" y="39" fill="#575756" width="0.77" height="4.58"/>
	<rect x="87.44" y="39" fill="#575756" width="0.77" height="4.58"/>
</g>
<rect x="105.31" y="10.5" fill="#FFFFFF" stroke="black" stroke-width="2" stroke-miterlimit="10" width="96.61" height="128.44"/>
<rect x="114.92" y="32.07" fill="#868686" width="77.1" height="9.4"/>
<rect x="114.92" y="47.79" fill="#D9D9D9" width="77.1" height="4.11"/>
<rect x="114.92" y="54.46" fill="#D9D9D9" width="77.1" height="4.11"/>
<rect x="114.92" y="61.46" fill="#D9D9D9" width="77.1" height="4.11"/>
<rect x="114.92" y="68.12" fill="#D9D9D9" width="77.1" height="4.11"/>
<rect x="114.92" y="74.72" fill="#D9D9D9" width="77.1" height="4.11"/>
<rect x="114.92" y="81.39" fill="#D9D9D9" width="77.1" height="4.11"/>
<rect x="114.92" y="88.39" fill="#D9D9D9" width="77.1" height="4.11"/>
<rect x="114.92" y="95.06" fill="#D9D9D9" width="77.1" height="4.11"/>
<rect x="114.92" y="101.55" fill="#D9D9D9" width="77.1" height="4.11"/>
<rect x="114.92" y="108.22" fill="#D9D9D9" width="77.1" height="4.11"/>
<rect x="114.92" y="115.22" fill="#D9D9D9" width="77.1" height="4.11"/>
<rect x="114.92" y="121.89" fill="#D9D9D9" width="77.1" height="4.11"/>
<g>
	<rect x="147.23" y="23.76" fill="#575756" width="12.43" height="0.53"/>
	<rect x="147.23" y="17.69" fill="#575756" width="12.43" height="0.47"/>
	<rect x="144.93" y="25.57" fill="#575756" width="17.08" height="0.85"/>
	<rect x="150.11" y="27.65" fill="#575756" width="6.71" height="0.79"/>
	<polygon fill="#575756" points="153.47,15.06 147.88,17.25 159.02,17.25 	"/>
	<rect x="148.68" y="18.74" fill="#575756" width="0.77" height="4.58"/>
	<rect x="150.44" y="18.74" fill="#575756" width="0.77" height="4.58"/>
	<rect x="152.19" y="18.74" fill="#575756" width="0.77" height="4.58"/>
	<rect x="153.94" y="18.74" fill="#575756" width="0.77" height="4.58"/>
	<rect x="155.7" y="18.74" fill="#575756" width="0.77" height="4.58"/>
	<rect x="157.45" y="18.74" fill="#575756" width="0.77" height="4.58"/>
</g>
<g>
	<g>
		<path fill="none" stroke="black" stroke-width="2" stroke-miterlimit="10" d="M170.24,153.31
			c18.36,32.37,92.12,80.13,142.1,81.51"/>
		<g>
			<polygon fill="black" points="162.26,159.16 166.04,139.58 181.11,152.64 			"/>
		</g>
	</g>
</g>
</svg>
